<?xml version="1.0" encoding="utf-8"?>
<!-- Generator: Adobe Illustrator 22.1.0, SVG Export Plug-In . SVG Version: 6.00 Build 0)  -->
<svg version="1.1" id="Calque_1" xmlns="http://www.w3.org/2000/svg" xmlns:xlink="http://www.w3.org/1999/xlink" x="0px" y="0px"
	 viewBox="0 0 1920 344" style="enable-background:new 0 0 1920 344;" xml:space="preserve">
<style type="text/css">
	.st0{fill:#1C0C07;}
	.st1{clip-path:url(#SVGID_8_);}
	.st2{clip-path:url(#SVGID_13_);}
	.st3{clip-path:url(#SVGID_14_);}
	.st4{clip-path:url(#SVGID_15_);fill:#034752;}
</style>
<g>
	<g>
		<g>
			<path id="SVGID_2_" class="st0" d="M1703.4,128c0-29.6,15.6-44.8,43.9-44.8h52.6c32.1,0,56.6,24.3,56.6,55.1
				c0,16.8-7.2,30.5-18.7,39.5l15.6,25.2c4.4,6.5,6.2,14,6.2,21.5c0,22.4-17.7,39.5-39.5,39.5c-13.7,0-27.1-6.8-34.5-19.6l-4.4-7.5
				c-5.3,15.9-19.6,27.1-37.7,27.1c-22.1,0-40.5-18.7-40.5-41.4L1703.4,128L1703.4,128z M1691.3,229.1c0,19.6-15.6,34.9-34.5,34.5
				h-62.9c-28.6,0-44.5-15.3-44.5-44.8v-90.6c0-29.3,15.6-44.8,44.5-44.8h62.9c19,0,34.5,15.6,34.5,34.9c0,17.7-10.9,30.2-26.5,33.3
				c7.2,4.4,10.9,12.1,10.9,22.1c0,10-4,17.7-10.9,22.1C1680.4,198.6,1691.3,211.7,1691.3,229.1L1691.3,229.1z M1501.1,223.2
				c0,22.4-18.7,40.5-43.6,40.5c-23.3,0-42.3-18.4-42.3-40.5V161c-20.2-1.2-36.7-17.7-36.7-38.9c0-22.1,17.4-38.9,38.9-38.9h81.9
				c21.5,0,38.9,17.1,38.9,38.9c0,21.2-16.5,38-36.7,38.9L1501.1,223.2L1501.1,223.2z M1218.8,128c0-29.6,15.6-44.8,43.9-44.8h52.6
				c32.1,0,56.6,24.3,56.6,55.1c0,16.8-7.2,30.5-18.7,39.5l15.6,25.2c4.4,6.5,6.2,14,6.2,21.5c0,22.4-17.7,39.5-39.5,39.5
				c-13.7,0-27.1-6.8-34.5-19.6l-4.4-7.5c-5.3,15.9-19.6,27.1-37.7,27.1c-22.1,0-40.5-18.7-40.5-41.4L1218.8,128L1218.8,128z
				 M1119.2,229.1c-10.3,21.2-24.6,31.4-42.3,31.4c-31.7,0-54.8-28.9-40.5-61.6l37-86.2c9.3-21.2,23-32.7,46.1-32.7
				c23.3,0,36.7,11.8,46.1,32.7l37,86.2c14,32.7-8.7,61.6-40.8,61.6C1143.8,260.9,1129.2,250.6,1119.2,229.1L1119.2,229.1z
				 M1013.4,223.2c0,22.4-19,40.5-43.6,40.5c-23.3,0-42.6-18.4-42.6-40.5V161c-20.2-1.2-36.7-17.7-36.7-38.9
				c0-22.1,17.4-38.9,38.9-38.9h81.5c21.5,0,38.9,17.1,38.9,38.9c0,21.2-16.5,38-36.7,38.9v62.3H1013.4z M890.4,205.2
				c0,35.8-27.7,58.5-74.4,58.5c-47.6,0-70-16.2-70-43c0-18.4,14.3-30.2,34.5-30.2h0.3l-10.9-10c-13.4-12.5-23-24.6-23-43
				c0-35.5,25.8-57.6,70.3-57.6c45.1,0,66.6,16.2,66.6,43c0,16.2-10.9,26.8-27.1,29.3l11.2,10C881.4,174.4,890.4,187.1,890.4,205.2
				L890.4,205.2z M737,220.1c0,22.1-18.7,40.8-41.4,40.5c-12.8,0-25.8-5.9-33.6-17.4l-8.4-11.8c-4,17.4-19,29.3-38.6,29.3
				c-22.4,0-40.5-18.1-40.5-40.2V119.9c0-22.1,17.7-40.2,40.5-40.2c19.9,0,35.2,12.8,38.9,30.5l9.3-13.1C671,86.3,684.1,80,696.5,80
				c21.8,0,40.5,17.1,40.5,39.2c0,8.4-2.5,16.8-7.5,23.7l-19.6,26.8l19.6,26.8C734.5,203.9,737,212,737,220.1L737,220.1z
				 M559.3,211.1c0,28.9-24.3,49.5-63.2,49.5c-52,0-90.3-38.6-90.3-90.3S444.1,80,496.1,80c38.9,0,63.2,20.5,63.2,49.5
				c0,19.6-9.6,32.7-28.6,40.8C549.6,178.7,559.3,191.8,559.3,211.1L559.3,211.1z M347.3,80c24.3,0,43.9,19.9,43.6,43.3v94.3
				c0,23.3-19,43.3-43.9,43.3c-24,0-43.6-19.6-43.6-43.3v-94.3C303.4,100,323,80,347.3,80L347.3,80z M291.6,220.1
				c0,22.1-18.7,40.8-41.4,40.5c-12.8,0-25.8-5.9-33.6-17.4l-8.4-11.8c-4,17.4-19,29.3-38.6,29.3c-22.4,0-40.5-18.1-40.5-40.2V119.9
				c0-22.1,17.7-40.2,40.5-40.2c19.6,0,35.2,12.8,38.9,30.5l9.6-13.1c7.8-10.9,20.5-17.1,33.3-17.1c21.8,0,40.5,17.1,40.5,39.2
				c0,8.4-2.5,16.8-7.5,23.7l-19.6,26.8l19.6,26.8C289.1,203.9,291.6,212,291.6,220.1L291.6,220.1z"/>
		</g>
		<g>
			<g>
				<defs>
					<rect id="SVGID_1_" x="128.8" y="80" width="1731.2" height="184"/>
				</defs>
				<clipPath id="SVGID_3_">
					<use xlink:href="#SVGID_1_"  style="overflow:visible;"/>
				</clipPath>
			</g>
		</g>
		<g>
			<g>
				<defs>
					<rect id="SVGID_4_" x="128.8" y="80" width="1731.2" height="184"/>
				</defs>
				<clipPath id="SVGID_5_">
					<use xlink:href="#SVGID_4_"  style="overflow:visible;"/>
				</clipPath>
			</g>
			<g>
				<defs>
					<rect id="SVGID_6_" x="128.8" y="80" width="1731.2" height="184"/>
				</defs>
				<defs>
					<path id="SVGID_7_" d="M1703.4,128c0-29.6,15.6-44.8,43.9-44.8h52.6c32.1,0,56.6,24.3,56.6,55.1c0,16.8-7.2,30.5-18.7,39.5
						l15.6,25.2c4.4,6.5,6.2,14,6.2,21.5c0,22.4-17.7,39.5-39.5,39.5c-13.7,0-27.1-6.8-34.5-19.6l-4.4-7.5
						c-5.3,15.9-19.6,27.1-37.7,27.1c-22.1,0-40.5-18.7-40.5-41.4L1703.4,128L1703.4,128z M1691.3,229.1c0,19.6-15.6,34.9-34.5,34.5
						h-62.9c-28.6,0-44.5-15.3-44.5-44.8v-90.6c0-29.3,15.6-44.8,44.5-44.8h62.9c19,0,34.5,15.6,34.5,34.9
						c0,17.7-10.9,30.2-26.5,33.3c7.2,4.4,10.9,12.1,10.9,22.1c0,10-4,17.7-10.9,22.1C1680.4,198.6,1691.3,211.7,1691.3,229.1
						L1691.3,229.1z M1501.1,223.2c0,22.4-18.7,40.5-43.6,40.5c-23.3,0-42.3-18.4-42.3-40.5V161c-20.2-1.2-36.7-17.7-36.7-38.9
						c0-22.1,17.4-38.9,38.9-38.9h81.9c21.5,0,38.9,17.1,38.9,38.9c0,21.2-16.5,38-36.7,38.9L1501.1,223.2L1501.1,223.2z
						 M1218.8,128c0-29.6,15.6-44.8,43.9-44.8h52.6c32.1,0,56.6,24.3,56.6,55.1c0,16.8-7.2,30.5-18.7,39.5l15.6,25.2
						c4.4,6.5,6.2,14,6.2,21.5c0,22.4-17.7,39.5-39.5,39.5c-13.7,0-27.1-6.8-34.5-19.6l-4.4-7.5c-5.3,15.9-19.6,27.1-37.7,27.1
						c-22.1,0-40.5-18.7-40.5-41.4L1218.8,128L1218.8,128z M1119.2,229.1c-10.3,21.2-24.6,31.4-42.3,31.4
						c-31.7,0-54.8-28.9-40.5-61.6l37-86.2c9.3-21.2,23-32.7,46.1-32.7c23.3,0,36.7,11.8,46.1,32.7l37,86.2
						c14,32.7-8.7,61.6-40.8,61.6C1143.8,260.9,1129.2,250.6,1119.2,229.1L1119.2,229.1z M1013.4,223.2c0,22.4-19,40.5-43.6,40.5
						c-23.3,0-42.6-18.4-42.6-40.5V161c-20.2-1.2-36.7-17.7-36.7-38.9c0-22.1,17.4-38.9,38.9-38.9h81.5c21.5,0,38.9,17.1,38.9,38.9
						c0,21.2-16.5,38-36.7,38.9v62.3H1013.4z M890.4,205.2c0,35.8-27.7,58.5-74.4,58.5c-47.6,0-70-16.2-70-43
						c0-18.4,14.3-30.2,34.5-30.2h0.3l-10.9-10c-13.4-12.5-23-24.6-23-43c0-35.5,25.8-57.6,70.3-57.6c45.1,0,66.6,16.2,66.6,43
						c0,16.2-10.9,26.8-27.1,29.3l11.2,10C881.4,174.4,890.4,187.1,890.4,205.2L890.4,205.2z M737,220.1c0,22.1-18.7,40.8-41.4,40.5
						c-12.8,0-25.8-5.9-33.6-17.4l-8.4-11.8c-4,17.4-19,29.3-38.6,29.3c-22.4,0-40.5-18.1-40.5-40.2V119.9
						c0-22.1,17.7-40.2,40.5-40.2c19.9,0,35.2,12.8,38.9,30.5l9.3-13.1C671,86.3,684.1,80,696.5,80c21.8,0,40.5,17.1,40.5,39.2
						c0,8.4-2.5,16.8-7.5,23.7l-19.6,26.8l19.6,26.8C734.5,203.9,737,212,737,220.1L737,220.1z M559.3,211.1
						c0,28.9-24.3,49.5-63.2,49.5c-52,0-90.3-38.6-90.3-90.3S444.1,80,496.1,80c38.9,0,63.2,20.5,63.2,49.5
						c0,19.6-9.6,32.7-28.6,40.8C549.6,178.7,559.3,191.8,559.3,211.1L559.3,211.1z M347.3,80c24.3,0,43.9,19.9,43.6,43.3v94.3
						c0,23.3-19,43.3-43.9,43.3c-24,0-43.6-19.6-43.6-43.3v-94.3C303.4,100,323,80,347.3,80L347.3,80z M291.6,220.1
						c0,22.1-18.7,40.8-41.4,40.5c-12.8,0-25.8-5.9-33.6-17.4l-8.4-11.8c-4,17.4-19,29.3-38.6,29.3c-22.4,0-40.5-18.1-40.5-40.2
						V119.9c0-22.1,17.7-40.2,40.5-40.2c19.6,0,35.2,12.8,38.9,30.5l9.6-13.1c7.8-10.9,20.5-17.1,33.3-17.1
						c21.8,0,40.5,17.1,40.5,39.2c0,8.4-2.5,16.8-7.5,23.7l-19.6,26.8l19.6,26.8C289.1,203.9,291.6,212,291.6,220.1L291.6,220.1z"/>
				</defs>
				<clipPath id="SVGID_8_">
					<use xlink:href="#SVGID_6_"  style="overflow:visible;"/>
				</clipPath>
				<clipPath id="SVGID_9_" class="st1">
					<use xlink:href="#SVGID_7_"  style="overflow:visible;"/>
				</clipPath>
			</g>
			<g>
				<defs>
					<rect id="SVGID_10_" x="128.8" y="80" width="1731.2" height="184"/>
				</defs>
				<defs>
					<path id="SVGID_11_" d="M1703.4,128c0-29.6,15.6-44.8,43.9-44.8h52.6c32.1,0,56.6,24.3,56.6,55.1c0,16.8-7.2,30.5-18.7,39.5
						l15.6,25.2c4.4,6.5,6.2,14,6.2,21.5c0,22.4-17.7,39.5-39.5,39.5c-13.7,0-27.1-6.8-34.5-19.6l-4.4-7.5
						c-5.3,15.9-19.6,27.1-37.7,27.1c-22.1,0-40.5-18.7-40.5-41.4L1703.4,128L1703.4,128z M1691.3,229.1c0,19.6-15.6,34.9-34.5,34.5
						h-62.9c-28.6,0-44.5-15.3-44.5-44.8v-90.6c0-29.3,15.6-44.8,44.5-44.8h62.9c19,0,34.5,15.6,34.5,34.9
						c0,17.7-10.9,30.2-26.5,33.3c7.2,4.4,10.9,12.1,10.9,22.1c0,10-4,17.7-10.9,22.1C1680.4,198.6,1691.3,211.7,1691.3,229.1
						L1691.3,229.1z M1501.1,223.2c0,22.4-18.7,40.5-43.6,40.5c-23.3,0-42.3-18.4-42.3-40.5V161c-20.2-1.2-36.7-17.7-36.7-38.9
						c0-22.1,17.4-38.9,38.9-38.9h81.9c21.5,0,38.9,17.1,38.9,38.9c0,21.2-16.5,38-36.7,38.9L1501.1,223.2L1501.1,223.2z
						 M1218.8,128c0-29.6,15.6-44.8,43.9-44.8h52.6c32.1,0,56.6,24.3,56.6,55.1c0,16.8-7.2,30.5-18.7,39.5l15.6,25.2
						c4.4,6.5,6.2,14,6.2,21.5c0,22.4-17.7,39.5-39.5,39.5c-13.7,0-27.1-6.8-34.5-19.6l-4.4-7.5c-5.3,15.9-19.6,27.1-37.7,27.1
						c-22.1,0-40.5-18.7-40.5-41.4L1218.8,128L1218.8,128z M1119.2,229.1c-10.3,21.2-24.6,31.4-42.3,31.4
						c-31.7,0-54.8-28.9-40.5-61.6l37-86.2c9.3-21.2,23-32.7,46.1-32.7c23.3,0,36.7,11.8,46.1,32.7l37,86.2
						c14,32.7-8.7,61.6-40.8,61.6C1143.8,260.9,1129.2,250.6,1119.2,229.1L1119.2,229.1z M1013.4,223.2c0,22.4-19,40.5-43.6,40.5
						c-23.3,0-42.6-18.4-42.6-40.5V161c-20.2-1.2-36.7-17.7-36.7-38.9c0-22.1,17.4-38.9,38.9-38.9h81.5c21.5,0,38.9,17.1,38.9,38.9
						c0,21.2-16.5,38-36.7,38.9v62.3H1013.4z M890.4,205.2c0,35.8-27.7,58.5-74.4,58.5c-47.6,0-70-16.2-70-43
						c0-18.4,14.3-30.2,34.5-30.2h0.3l-10.9-10c-13.4-12.5-23-24.6-23-43c0-35.5,25.8-57.6,70.3-57.6c45.1,0,66.6,16.2,66.6,43
						c0,16.2-10.9,26.8-27.1,29.3l11.2,10C881.4,174.4,890.4,187.1,890.4,205.2L890.4,205.2z M737,220.1c0,22.1-18.7,40.8-41.4,40.5
						c-12.8,0-25.8-5.9-33.6-17.4l-8.4-11.8c-4,17.4-19,29.3-38.6,29.3c-22.4,0-40.5-18.1-40.5-40.2V119.9
						c0-22.1,17.7-40.2,40.5-40.2c19.9,0,35.2,12.8,38.9,30.5l9.3-13.1C671,86.3,684.1,80,696.5,80c21.8,0,40.5,17.1,40.5,39.2
						c0,8.4-2.5,16.8-7.5,23.7l-19.6,26.8l19.6,26.8C734.5,203.9,737,212,737,220.1L737,220.1z M559.3,211.1
						c0,28.9-24.3,49.5-63.2,49.5c-52,0-90.3-38.6-90.3-90.3S444.1,80,496.1,80c38.9,0,63.2,20.5,63.2,49.5
						c0,19.6-9.6,32.7-28.6,40.8C549.6,178.7,559.3,191.8,559.3,211.1L559.3,211.1z M347.3,80c24.3,0,43.9,19.9,43.6,43.3v94.3
						c0,23.3-19,43.3-43.9,43.3c-24,0-43.6-19.6-43.6-43.3v-94.3C303.4,100,323,80,347.3,80L347.3,80z M291.6,220.1
						c0,22.1-18.7,40.8-41.4,40.5c-12.8,0-25.8-5.9-33.6-17.4l-8.4-11.8c-4,17.4-19,29.3-38.6,29.3c-22.4,0-40.5-18.1-40.5-40.2
						V119.9c0-22.1,17.7-40.2,40.5-40.2c19.6,0,35.2,12.8,38.9,30.5l9.6-13.1c7.8-10.9,20.5-17.1,33.3-17.1
						c21.8,0,40.5,17.1,40.5,39.2c0,8.4-2.5,16.8-7.5,23.7l-19.6,26.8l19.6,26.8C289.1,203.9,291.6,212,291.6,220.1L291.6,220.1z"/>
				</defs>
				<defs>
					<rect id="SVGID_12_" x="128.8" y="-1164" width="1731.2" height="1428"/>
				</defs>
				<clipPath id="SVGID_13_">
					<use xlink:href="#SVGID_10_"  style="overflow:visible;"/>
				</clipPath>
				<clipPath id="SVGID_14_" class="st2">
					<use xlink:href="#SVGID_11_"  style="overflow:visible;"/>
				</clipPath>
				<clipPath id="SVGID_15_" class="st3">
					<use xlink:href="#SVGID_12_"  style="overflow:visible;"/>
				</clipPath>
				<rect x="101.7" y="53" class="st4" width="1785.3" height="237.8"/>
			</g>
		</g>
	</g>
</g>
</svg>
