<?xml version="1.0" standalone="no"?>
<!DOCTYPE svg PUBLIC "-//W3C//DTD SVG 20010904//EN"
 "http://www.w3.org/TR/2001/REC-SVG-20010904/DTD/svg10.dtd">
<svg version="1.0" xmlns="http://www.w3.org/2000/svg"
 width="156.000000pt" height="156.000000pt" viewBox="0 0 156.000000 156.000000"
 preserveAspectRatio="xMidYMid meet">
<metadata>
Created by potrace 1.11, written by Peter Selinger 2001-2013
</metadata>
<g transform="translate(0.000000,156.000000) scale(0.100000,-0.100000)"
fill="#000000" stroke="none">
<path d="M550 1429 c-129 -71 -269 -149 -310 -171 -41 -22 -98 -54 -125 -69
l-51 -29 1 -204 0 -205 115 -73 115 -73 238 -3 c130 -2 237 1 237 5 -1 4 -105
69 -233 143 l-232 135 0 68 0 68 70 38 c39 20 99 53 135 73 169 94 198 110
237 130 l41 21 130 -71 130 -72 228 0 c197 0 226 2 209 14 -18 12 -695 406
-699 406 0 0 -107 -59 -236 -131z"/>
<path d="M781 946 c2 -2 20 -12 39 -23 81 -43 436 -257 441 -266 7 -10 5 -115
-2 -120 -2 -2 -49 -28 -104 -57 -55 -29 -122 -65 -150 -80 -27 -15 -81 -44
-120 -65 -38 -21 -74 -42 -80 -46 -17 -17 -39 -9 -157 56 l-118 65 -229 -2
-230 -3 261 -150 c143 -82 277 -159 297 -170 20 -11 62 -35 93 -53 l56 -33
354 196 c194 108 357 201 363 206 5 5 9 94 10 204 l0 194 -134 75 -134 76
-230 0 c-127 0 -228 -2 -226 -4z"/>
</g>
</svg>
